<?xml version="1.0" encoding="utf-8"?>
<!-- Generator: Adobe Illustrator 25.3.0, SVG Export Plug-In . SVG Version: 6.00 Build 0)  -->
<svg version="1.1" id="Layer_1" xmlns="http://www.w3.org/2000/svg" xmlns:xlink="http://www.w3.org/1999/xlink" x="0px" y="0px"
	 viewBox="0 0 700 700" style="enable-background:new 0 0 700 700;" xml:space="preserve">
<style type="text/css">
	.st0{clip-path:url(#SVGID_2_);}
	.st1{stroke:#231F20;stroke-width:36;}
	.st2{fill:#E31B23;}
	.st3{fill:#231F20;}
	.st4{fill:#FFFFFF;}
	.st5{fill:#FFE512;}
</style>
<g>
	<g>
		<defs>
			<path id="SVGID_1_" d="M654.5,204.9l-3.7-7.7c-8.6-18.2-26.2-31.3-39.1-41c-7.3-5.5-13.6-10.2-15.3-13.6
				c-15.9-33.6-49.6-55.8-94-66.2c-2-2.7-4.1-5.3-6.4-7.8c-21.8-24.1-54.9-38.9-90.6-40.4C350,25.8,301.3,55.5,284.3,98.1
				c-17.9,6.4-36,13.8-54,22.3c-20,9.5-39.1,19.9-57,30.9c-34.8-4-73.7,8.9-103.7,37.7c-25.9,24.9-41,58-41.4,90.7
				c-0.1,4.4,0.2,8.8,0.7,13.1C4.3,337.3-2,381.2,15.1,417.5c0.3,1-0.6,5.5-1.4,9.8c-3.3,17.3-9.5,49.6,4.5,79.1l5.9,12.8
				c21.9,47.5,52,112.6,124.6,139c47,17.1,105,16.1,175.6-3.2c13.3,14.9,40.3,24.5,94.6,9.3c91-25.6,95.7-67.3,91.9-87.4
				c92.8-51.7,151-109.3,173.2-171.6C712.2,325.9,677.5,253.1,654.5,204.9z"/>
		</defs>
		<clipPath id="SVGID_2_">
			<use xlink:href="#SVGID_1_"  style="overflow:visible;"/>
		</clipPath>
		<g class="st0">
			<path class="st1" d="M654.5,204.9l-3.7-7.7c-8.6-18.2-26.2-31.3-39.1-41c-7.3-5.5-13.6-10.2-15.3-13.6
				c-15.9-33.6-49.6-55.8-94-66.2c-2-2.7-4.1-5.3-6.4-7.8c-21.8-24.1-54.9-38.9-90.6-40.4C350,25.8,301.3,55.5,284.3,98.1
				c-17.9,6.4-36,13.8-54,22.3c-20,9.5-39.1,19.9-57,30.9c-34.8-4-73.7,8.9-103.7,37.7c-25.9,24.9-41,58-41.4,90.7
				c-0.1,4.4,0.2,8.8,0.7,13.1C4.3,337.3-2,381.2,15.1,417.5c0.3,1-0.6,5.5-1.4,9.8c-3.3,17.3-9.5,49.6,4.5,79.1l5.9,12.8
				c21.9,47.5,52,112.6,124.6,139c47,17.1,105,16.1,175.6-3.2c13.3,14.9,40.3,24.5,94.6,9.3c91-25.6,95.7-67.3,91.9-87.4
				c92.8-51.7,151-109.3,173.2-171.6C712.2,325.9,677.5,253.1,654.5,204.9z"/>
			<path class="st2" d="M594.7,143.4c-41.3-87.2-204.1-96.8-363.6-21.3C71.5,197.6-24.4,329.5,16.9,416.7c2.2,4.7-15.4,49.8,3,88.8
				c41.3,87.2,99,256.5,438.1,96.2C780.3,449.3,690.3,285.3,649.1,198C635.7,169.6,599.6,153.7,594.7,143.4z"/>
			<path class="st3" d="M596.5,142.6c-41.7-88.1-205.9-98-366.2-22.2C70,196.2-26.5,329.5,15.1,417.6c0,0,0-0.1,0-0.1
				c0.3,1-0.6,5.5-1.4,9.8c-3.3,17.3-9.5,49.6,4.5,79.1l5.9,12.8c21.9,47.5,52,112.6,124.6,139c74,26.9,175.5,9,310.1-54.7
				C582.2,545.2,657.9,478.5,684,405.3c28.3-79.4-6.5-152.2-29.4-200.3l-3.7-7.7c-8.6-18.2-26.2-31.3-39.1-41
				C604.4,150.8,598.1,146,596.5,142.6z M647.3,198.9l3.7,7.7c24.1,50.4,57,119.5,29.3,197.3C654.6,476.2,579.5,542.1,457.1,600
				c-70.6,33.4-133.4,54.4-186.7,62.4c-46.3,7-86.8,4.3-120.4-7.9c-71.1-25.8-100.8-90.1-122.4-137l-6-12.8
				c-13.4-28.4-7.4-59.8-4.1-76.7c1.4-7.4,2-10.4,1.1-12.1c-40.7-86.1,54.9-217.1,213.3-292C390.3,49,552.2,58.1,593,144.3
				c2,4.3,8.4,9.1,16.5,15.1C622,168.7,639.2,181.6,647.3,198.9z"/>
			<path class="st4" d="M228.5,179.5c39.2,39.9,32.3,109.5-15.4,155.5c-47.7,46-118.3,50.9-157.5,11C16.3,306,23.2,236.4,71,190.4
				C118.7,144.5,189.2,139.6,228.5,179.5z"/>
			<path class="st3" d="M227.1,180.8c16.4,16.7,25.2,39.7,24.9,64.8c-0.4,31.7-15.1,63.7-40.3,87.9c-46.9,45.2-116.3,50.1-154.8,11
				c-16.4-16.7-25.2-39.7-24.9-64.8c0.4-31.7,15.1-63.7,40.2-87.9C119.2,146.7,188.7,141.7,227.1,180.8z M69.6,189
				c-25.9,24.9-41,58-41.4,90.7c-0.4,26.2,8.9,50.2,26,67.6C94.1,387.9,166,383,214.4,336.4c25.9-24.9,41-58,41.4-90.7
				c0.4-26.2-8.9-50.2-26-67.6C189.9,137.5,118.1,142.4,69.6,189z"/>
			<g>
				<path class="st5" d="M197.8,209c25.3,25.8,20.9,70.7-9.9,100.4c-30.8,29.7-76.4,32.9-101.7,7.1c-25.3-25.8-20.9-70.7,9.9-100.4
					C127,186.4,172.5,183.2,197.8,209z"/>
			</g>
			<path class="st4" d="M519.2,136.6c-3.2,56-59.4,99.1-125.5,96.3c-66.1-2.8-117.1-50.5-113.9-106.5c3.2-56,59.4-99.1,125.5-96.3
				C471.4,32.9,522.4,80.6,519.2,136.6z"/>
			<path class="st3" d="M517.2,136.5c-3.1,54.8-58.5,97.2-123.4,94.4c-34.7-1.5-66.7-15.7-87.9-39.1c-16.9-18.7-25.4-41.9-24.1-65.3
				C285,71.6,340.3,29.3,405.3,32c34.7,1.5,66.7,15.7,87.9,39.1C510,89.8,518.6,113,517.2,136.5z M405.4,28.1
				c-67-2.9-124.2,41.1-127.5,98.1c-1.4,24.5,7.5,48.7,25.1,68.2c21.8,24.1,54.9,38.9,90.6,40.4c67,2.9,124.2-41.1,127.5-98.1
				c1.4-24.5-7.5-48.7-25.1-68.2C474.2,44.4,441.2,29.7,405.4,28.1z"/>
			<g>
				<path class="st5" d="M443.8,125.8c-2,20.3-23.1,35-47,33c-23.9-2-41.6-20.1-39.6-40.4c2-20.3,23.1-35,47-33
					C428.2,87.5,445.9,105.6,443.8,125.8z"/>
			</g>
			<g>
				<path d="M156.7,248.7c4.2,8.8,0.3,19.4-8.7,23.7c-9,4.3-19.6,0.5-23.8-8.3c-4.2-8.8-0.3-19.4,8.7-23.7
					C141.9,236.2,152.5,239.9,156.7,248.7z"/>
			</g>
			<g>
				<path class="st4" d="M145.5,254c1.3,2.8,0.1,6.1-2.7,7.4c-2.8,1.3-6.1,0.2-7.4-2.6c-1.3-2.8-0.1-6.1,2.7-7.4
					C140.9,250.1,144.2,251.2,145.5,254z"/>
			</g>
			<g>
				<path d="M420.3,110.9c5.3,11.2,0.4,24.7-11.1,30.1c-11.4,5.4-25,0.7-30.3-10.5c-5.3-11.2-0.4-24.7,11.1-30.1
					C401.5,94.9,415,99.6,420.3,110.9z"/>
			</g>
			<g>
				<path class="st4" d="M406.1,117.6c1.7,3.5,0.1,7.7-3.5,9.4c-3.6,1.7-7.8,0.2-9.5-3.3c-1.7-3.5-0.1-7.7,3.5-9.4
					C400.2,112.6,404.5,114.1,406.1,117.6z"/>
			</g>
			<g>
				<g>
					<path class="st5" d="M210.5,569.8c3.3,7-1.2,16-10,20.1c-8.8,4.2-18.6,1.9-21.9-5c-3.3-7,1.2-16,10-20.1
						C197.4,560.6,207.2,562.8,210.5,569.8z"/>
				</g>
				<g>
					<path class="st5" d="M167.7,613.8c1.9,4-0.3,9-4.9,11.1c-4.6,2.2-9.9,0.7-11.7-3.2c-1.9-4,0.3-8.9,5-11.1
						C160.6,608.3,165.8,609.8,167.7,613.8z"/>
				</g>
				<g>
					<path class="st5" d="M136.1,577c1.4,3-0.3,6.8-3.8,8.5c-3.5,1.7-7.5,0.6-8.9-2.5s0.3-6.8,3.8-8.5
						C130.7,572.9,134.7,574,136.1,577z"/>
				</g>
				<g>
					<path class="st5" d="M164.5,591.4c0.9,1.9,0.1,4.2-1.9,5.1c-1.9,0.9-4.2,0.1-5.1-1.8c-0.9-1.9-0.1-4.2,1.9-5.1
						C161.3,588.7,163.6,589.5,164.5,591.4z"/>
				</g>
				<g>
					
						<ellipse transform="matrix(0.904 -0.4276 0.4276 0.904 -244.0388 145.0186)" class="st5" cx="200.8" cy="615.8" rx="12.3" ry="11.2"/>
				</g>
			</g>
			<g>
				<path class="st5" d="M446.1,270.4c4,8.5-0.4,19-9.8,23.4c-9.4,4.5-20.3,1.2-24.3-7.3c-4-8.5,0.4-19,9.8-23.4
					C431.2,258.7,442.1,262,446.1,270.4z"/>
			</g>
			<g>
				<path class="st5" d="M472.6,253.1c2.9,6.1,0.2,13.5-6,16.4c-6.2,2.9-13.6,0.4-16.5-5.8c-2.9-6.1-0.2-13.5,6-16.4
					C462.3,244.5,469.7,247,472.6,253.1z"/>
			</g>
			<g>
				<path class="st5" d="M406.1,260.9c1.7,3.7-0.3,8.3-4.6,10.3c-4.3,2-9.2,0.7-10.9-3c-1.7-3.7,0.3-8.3,4.6-10.3
					C399.4,255.9,404.3,257.2,406.1,260.9z"/>
			</g>
			<g>
				<path class="st5" d="M629.2,292.7c1.1,2.3,0.1,5.1-2.3,6.2c-2.3,1.1-5.1,0.1-6.2-2.2c-1.1-2.3-0.1-5.1,2.3-6.2
					C625.3,289.4,628.1,290.4,629.2,292.7z"/>
			</g>
			<g>
				<path class="st5" d="M628.5,315.6c1.1,2.3,0.1,5.1-2.3,6.2c-2.3,1.1-5.1,0.1-6.2-2.2c-1.1-2.3-0.1-5.1,2.3-6.2
					C624.7,312.3,627.4,313.3,628.5,315.6z"/>
			</g>
			<g>
				<path class="st5" d="M613.4,303.9c1.1,2.3,0.1,5.1-2.3,6.2c-2.3,1.1-5.1,0.1-6.2-2.2c-1.1-2.3-0.1-5.1,2.3-6.2
					C609.6,300.6,612.4,301.6,613.4,303.9z"/>
			</g>
			<path class="st4" d="M195.4,466.1c-2.1,7-12.5,11.5-23.1,10l-16-2.2c-10.6-1.5-17.5-8.3-15.3-15.3l3.7-12.1
				c2.1-7,6.1-13.8,16.7-12.3l22.4,4.5c10.6,1.5,17.5,1.8,15.3,15.3L195.4,466.1z"/>
			<path class="st3" d="M258.1,449.9c-104.9-3.8-165.7-44-165.7-44s89.1,75.3,253.3,3.2c197.5-86.8,160.4-207.9,160.4-207.9
				s120.8,268.3,2.2,306.7c-118.6,38.4-244.7,47.2-264,64.8c-19.3,17.6,10.6,54.9,10.6,54.9s-58.5-58.3,31.1-70.9
				c38.3-5.4,48-32.5,31.4-64.1C306.8,472.1,277.4,450.6,258.1,449.9z"/>
			<path class="st3" d="M258.2,448.9C154.7,445.2,93.6,405.5,93,405.1l-1.2,1.6c0.2,0.2,23,19.1,65.5,28.9c25,5.7,51.8,7.2,79.7,4.5
				c34.9-3.4,71.6-13.5,109.2-30c45.2-19.8,81.7-43.1,108.7-69.3c21.6-20.9,37.1-43.7,46.1-67.7c15.4-41,6.3-71.7,6.2-72l-1.8,0.7
				c0.8,1.8,81.6,183.3,44.3,267.4c-8.4,19-22.4,31.8-41.6,38c-61.2,19.8-123.7,31.6-174,41.1c-46.9,8.8-80.9,15.2-90.4,24
				c-19.8,18.1,9.3,54.6,10.5,56.2l1.4-1.3c-0.2-0.2-23.9-24.2-17.3-44c4.3-12.9,20.4-21.4,47.9-25.3c17.9-2.5,30.4-9.9,36.3-21.3
				c6.1-11.8,4.6-27.5-4.2-44.2C307.3,470.9,277.5,449.6,258.2,448.9z M316.7,492.9c8.5,16.1,10,31.2,4.2,42.4
				c-5.6,10.9-17.6,17.9-34.9,20.3c-28.2,4-44.9,12.9-49.4,26.6c-7,21,16.8,45,17.8,46l1.4-1.3c-0.3-0.4-29.1-36.7-10.7-53.5
				c9.1-8.3,44.6-15,89.4-23.5c50.3-9.5,112.9-21.3,174.2-41.1c19.7-6.4,34.1-19.5,42.7-39c19.7-44.4,6.6-115.2-7.9-166.8
				c-15.7-55.8-36.2-101.7-36.4-102.2l-1.8,0.7c0.4,1.2,34.4,121.3-159.9,206.7c-161.7,71.1-251.4-2.3-252.3-3l-1.2,1.6
				c0.6,0.4,62.1,40.4,166.2,44.2C276.8,451.5,305.8,472.4,316.7,492.9z"/>
			<path class="st2" d="M409.6,515.4c0,0-33.7-5.3-61.3,11.1c-27.6,16.4-89.1,180.6,70.1,135.8c92.1-25.9,94.9-68.9,89.7-88.5
				c-3.4-12.8-2.1-10.5-9-23.7c-3.7-7.1-6.3-26.7,23.5-45.9c14-9,18.9-14.3,18.9-14.3s-27.8-26.9-66.1-16.5
				c-58.4,15.8-76.4,62.2-77.9,72.6C396,556.2,409.6,515.4,409.6,515.4z"/>
			<path class="st3" d="M409.9,513.5c-1.4-0.2-34.7-5.2-62.6,11.3c-17.6,10.5-48.3,76.9-30.9,117.5c8.9,20.7,33.9,41.2,102.6,21.9
				c96.7-27.2,95.9-72.6,91.1-90.9l-1.4-5.4c-1.8-7.2-1.9-7.6-7.7-18.7c-4.2-8-4-26.1,22.8-43.4c14.1-9.1,19-14.4,19.3-14.6l1.3-1.4
				l-1.4-1.3c-0.3-0.3-29-27.5-67.9-17c-59.4,16.1-77.7,62.6-79.3,74.2c-0.2,1.2-0.5,3.4,1.5,3.8c2.1,0.5,3,0.7,14.4-33.4l0.7-2.2
				L409.9,513.5z M399.4,546.2c1.5-10.4,19.8-55.6,76.5-71c36.8-10,63.9,15.8,64.2,16l-0.1-2.7c0,0.1-4.9,5.3-18.5,14
				c-29.2,18.8-28.9,39.3-24.1,48.4c5.6,10.7,5.7,11,7.4,17.9l1.4,5.5c4.6,17.2,5,59.9-88.3,86.2c-52.3,14.7-86.1,7.9-98-19.7
				c-16.3-38.1,13-102.9,29.4-112.6c26.7-15.9,59.7-10.9,60-10.8l-1.5-2.5c-4.7,14.1-10.3,29.7-11.5,31.3c0.3-0.3,1-0.7,1.8-0.5
				c0.8,0.3,1.2,1,1.3,1.4C399.3,547.1,399.3,546.9,399.4,546.2z"/>
			<path class="st4" d="M340,438.9c2.3,6.9-3.3,15.1-12.4,18.4l-13.7,4.9c-9.1,3.3-18.3,0.3-20.6-6.6l-3.9-11.9
				c-2.3-6.9-3-14.4,6.1-17.6l20-5.7c9.1-3.3,14.7-5.9,20.6,6.6L340,438.9z"/>
			<path class="st4" d="M451.3,379c4.5,6,1.3,15.2-7,20.6l-12.6,8.2c-8.3,5.4-18.7,5-23.1-1l-7.7-10.3c-4.4-6-7.5-12.9,0.8-18.3
				l18.7-10.5c8.3-5.4,13.2-9.3,23.1,1L451.3,379z"/>
			<path class="st4" d="M518.6,469.2c-4.5-5.9-3.4-13.9,2.4-17.7l8.8-5.8c5.8-3.8,14.2-2.1,18.7,3.8l7.8,10.3
				c4.5,5.9-13.7,28.3-13.7,28.3c-5.8,3.8-6.6,1.9-16.1-8.7L518.6,469.2z"/>
			<path class="st4" d="M279.4,528.8c-4.5-5.9-12.9-7.7-18.6-3.8l-8.8,5.8c-5.8,3.8-6.9,11.7-2.4,17.7l7.8,10.3
				c4.5,5.9,27.4-1.9,27.4-1.9c5.8-3.8,9.8-5.7,2.4-17.7L279.4,528.8z"/>
			<path class="st4" d="M533.9,265.6c8.1,1.6,12,9.8,8.8,18.3l-4.8,12.8c-3.2,8.5-12.3,14.1-20.4,12.5l-13.9-2.8
				c-8.1-1.6-15.6-4.6-12.4-13.2l8.4-18c3.2-8.5,4.5-14,20.4-12.5L533.9,265.6z"/>
			<path class="st5" d="M384.1,614.4c0.8,2.6-1.1,5.6-4.1,6.6c-3.1,1-6.2-0.2-6.9-2.9c-0.8-2.6,1-5.6,4.1-6.6
				C380.2,610.5,383.3,611.8,384.1,614.4z"/>
			<path class="st5" d="M366.9,636.8c0.5,1.8-0.7,3.9-2.8,4.6c-2.1,0.7-4.3-0.2-4.8-2c-0.6-1.8,0.7-3.9,2.8-4.6
				C364.2,634.1,366.3,635,366.9,636.8z"/>
			<path class="st5" d="M361.9,623.1c1,3.2-1.3,6.9-5,8.1c-3.8,1.3-7.6-0.3-8.5-3.5c-1-3.2,1.3-6.9,5-8.1
				C357.1,618.3,360.9,619.9,361.9,623.1z"/>
		</g>
	</g>
</g>
</svg>
