<svg version="1.1" id="Layer_1" xmlns="http://www.w3.org/2000/svg" xmlns:xlink="http://www.w3.org/1999/xlink" x="0" y="0" viewBox="0 0 24 24" xml:space="preserve"><style>.st2{fill:#e31b23}.st3{fill:#231f20}.st4{fill:#fff}.st5{fill:#ffe512}</style><defs><path id="SVGID_1_" d="M22.6 7l-.1-.3c-.3-.6-.9-1.1-1.4-1.4l-.5-.5c-.6-1.2-1.7-1.9-3.3-2.3l-.2-.3A4.5 4.5 0 0013.9.8c-1.9-.1-3.6 1-4.2 2.4L7.8 4l-2 1.1c-1.2-.1-2.5.3-3.6 1.3-.9.9-1.4 2-1.4 3.2v.5c-.9 1.5-1.1 3.1-.5 4.3v.3c-.1.6-.3 1.7.2 2.8l.2.4c.8 1.7 1.8 3.9 4.3 4.8 1.6.6 3.7.6 6.1-.1.5.5 1.4.9 3.3.3 3.2-.9 3.3-2.3 3.2-3 3.2-1.8 5.3-3.8 6-6 1-2.7-.2-5.3-1-6.9z"/></defs><clipPath id="SVGID_2_"><use xlink:href="#SVGID_1_" overflow="visible"/></clipPath><g clip-path="url(#SVGID_2_)"><path d="M22.6 7l-.1-.3c-.3-.6-.9-1.1-1.4-1.4l-.5-.5c-.6-1.2-1.7-1.9-3.3-2.3l-.2-.3A4.5 4.5 0 0013.9.8c-1.9-.1-3.6 1-4.2 2.4L7.8 4l-2 1.1c-1.2-.1-2.5.3-3.6 1.3-.9.9-1.4 2-1.4 3.2v.5c-.9 1.5-1.1 3.1-.5 4.3v.3c-.1.6-.3 1.7.2 2.8l.2.4c.8 1.7 1.8 3.9 4.3 4.8 1.6.6 3.7.6 6.1-.1.5.5 1.4.9 3.3.3 3.2-.9 3.3-2.3 3.2-3 3.2-1.8 5.3-3.8 6-6 1-2.7-.2-5.3-1-6.9z" stroke="#231f20" stroke-width="36"/><path class="st2" d="M20.5 4.8c-1.4-3-7.1-3.4-12.7-.7C2.3 6.7-1 11.3.4 14.3c.1.2-.5 1.7.1 3.1 1.4 3 3.4 8.9 15.3 3.4 11.2-5.3 8.1-11 6.7-14.1-.5-1-1.8-1.5-2-1.9z"/><path class="st3" d="M20.6 4.8C19.1 1.7 13.4 1.4 7.8 4S-1.1 11.3.3 14.4v.3c-.1.6-.3 1.7.2 2.8l.2.4c.8 1.7 1.8 3.9 4.3 4.8 2.6.9 6.1.3 10.8-1.9 4.3-2 6.9-4.4 7.8-6.9 1-2.8-.2-5.3-1-7l-.1-.3c-.3-.6-.9-1.1-1.4-1.4l-.5-.4zm1.8 2l.1.2c.8 1.8 2 4.2 1 6.9-.9 2.5-3.5 4.8-7.8 6.8a23.7 23.7 0 01-6.5 2.2c-1.6.2-3 .1-4.2-.3-2.5-.9-3.5-3.1-4.3-4.8l-.2-.4c-.5-1-.3-2.1-.1-2.7 0-.3.1-.4 0-.4-1.4-3 1.9-7.6 7.4-10.2s11.2-2.3 12.6.7l.6.6c.5.3 1.1.8 1.4 1.4z"/><path class="st4" d="M7.8 6.1c1.4 1.4 1.1 3.8-.5 5.4s-4.1 1.8-5.5.4C.4 10.5.7 8.1 2.3 6.5 4 4.9 6.4 4.7 7.8 6.1z"/><path class="st3" d="M7.7 6.1c.6.6.9 1.4.9 2.3 0 1.1-.5 2.2-1.4 3.1-1.6 1.6-4.1 1.7-5.4.4-.6-.6-.9-1.4-.9-2.3 0-1.1.5-2.2 1.4-3.1C4 4.9 6.4 4.8 7.7 6.1zm-5.5.3c-.9.9-1.4 2-1.4 3.2 0 .9.3 1.7.9 2.4 1.4 1.4 3.9 1.2 5.6-.4.9-.9 1.4-2 1.4-3.2 0-.9-.3-1.7-.9-2.4-1.4-1.4-3.9-1.2-5.6.4z"/><path class="st5" d="M6.7 7.1c.9.9.7 2.5-.3 3.5s-2.7 1.1-3.5.2-.8-2.4.3-3.4c1-1.1 2.6-1.2 3.5-.3z"/><path class="st4" d="M17.9 4.6c-.1 2-2.1 3.5-4.4 3.4-2.3-.1-4.1-1.8-4-3.7S11.6.8 13.9.9s4.1 1.7 4 3.7z"/><path class="st3" d="M17.8 4.6c-.1 1.9-2 3.4-4.3 3.3a4.5 4.5 0 01-3.1-1.4c-.5-.6-.8-1.4-.8-2.3.1-1.9 2-3.4 4.3-3.3 1.2.1 2.4.6 3.1 1.4.6.7.9 1.5.8 2.3zM13.9.8C11.6.7 9.6 2.2 9.5 4.2c0 .9.3 1.7.9 2.4.7.8 1.9 1.4 3.1 1.4 2.3.1 4.3-1.4 4.4-3.4 0-.9-.3-1.7-.9-2.4A4.5 4.5 0 0013.9.8z"/><path class="st5" d="M15.3 4.2c-.1.7-.8 1.2-1.6 1.1-.8-.1-1.4-.7-1.4-1.4.1-.7.8-1.2 1.6-1.1.8.1 1.4.7 1.4 1.4z"/><path d="M5.3 8.5c.1.3 0 .7-.3.8-.3.2-.7 0-.9-.3-.1-.3 0-.6.3-.8.4-.1.7 0 .9.3z"/><path class="st4" d="M4.9 8.7l-.1.3-.3-.1.1-.3c.1-.1.2 0 .3.1z"/><path d="M14.5 3.7c.2.4 0 .9-.4 1-.4.2-.9 0-1.1-.4-.2-.4 0-.9.4-1 .4-.2.9 0 1.1.4z"/><path class="st4" d="M14 3.9c.1.1 0 .3-.1.3-.1.1-.3 0-.3-.1-.1-.1 0-.3.1-.3l.3.1z"/><path class="st5" d="M7.2 19.7c.1.2 0 .6-.3.7-.3.1-.6.1-.8-.2-.1-.2 0-.6.3-.7.3-.1.6-.1.8.2zM5.7 21.2c.1.1 0 .3-.2.4-.2.1-.3 0-.4-.1-.1-.1 0-.3.2-.4.1-.1.3 0 .4.1zM4.6 19.9l-.1.3c-.1.1-.3 0-.3-.1l.1-.3.3.1zM5.5 20.4l-.1.2-.2-.1.1-.2.2.1z"/><circle transform="rotate(-25.3 6.8 21.3)" class="st5" cx="6.8" cy="21.3" r=".4"/><path class="st5" d="M15.4 9.3c.1.3 0 .7-.3.8-.3.2-.7 0-.8-.3-.1-.3 0-.7.3-.8.2-.2.6 0 .8.3zM16.3 8.6c.1.2 0 .5-.2.6-.2.1-.5 0-.6-.2-.1-.2 0-.5.2-.6.2-.1.5 0 .6.2zM14 8.9c0 .1 0 .3-.2.4-.1.1-.3 0-.4-.1-.1-.1 0-.3.2-.4.1-.1.3 0 .4.1zM21.7 10l-.1.2-.2-.1.1-.2.2.1zM21.7 10.8l-.1.2-.2-.1.1-.2.2.1zM21.2 10.4l-.1.2-.2-.1.1-.2.2.1z"/><path class="st4" d="M6.6 16.1c-.1.2-.4.4-.8.3l-.6-.1c-.4-.1-.6-.3-.5-.5l.1-.4c.1-.2.2-.5.6-.4l.8.2c.4.1.6.1.5.5l-.1.4z"/><path class="st3" d="M8.8 15.5C5.2 15.4 3 14 3 14s3.1 2.6 8.8.1c6.9-3 5.6-7.2 5.6-7.2s4.2 9.3.1 10.7c-4.1 1.3-8.5 1.6-9.2 2.3-.7.6.4 1.9.4 1.9s-2-2 1.1-2.5c1.3-.2 1.7-1.1 1.1-2.2-.4-.8-1.4-1.6-2.1-1.6z"/><path class="st3" d="M8.8 15.5C5.2 15.4 3.1 14 3 14c0 0 .8.7 2.3 1 .9.2 1.8.3 2.8.2a14.3 14.3 0 007.6-3.4c.8-.7 1.3-1.5 1.6-2.4.5-1.4.2-2.5.2-2.5h-.1c0 .1 2.8 6.4 1.5 9.3-.3.7-.8 1.1-1.4 1.3-2.1.7-4.3 1.1-6.1 1.4-1.6.3-2.8.5-3.1.8-.7.6.3 1.9.4 2 0 0-.8-.8-.6-1.5.1-.4.7-.7 1.7-.9.6-.1 1.1-.3 1.3-.7.2-.4.2-1-.1-1.5-.5-.9-1.5-1.6-2.2-1.6zm2 1.5c.3.6.3 1.1.1 1.5-.2.4-.6.6-1.2.7-1 .1-1.6.4-1.7.9-.2.7.6 1.6.6 1.6s-1-1.3-.4-1.9c.3-.3 1.6-.5 3.1-.8 1.8-.3 3.9-.7 6.1-1.4.7-.2 1.2-.7 1.5-1.4.7-1.5.2-4-.3-5.8-.5-1.9-1.3-3.5-1.3-3.6h-.1s1.2 4.2-5.6 7.2c-5.6 2.5-8.8-.1-8.8-.1l.2.1s2.2 1.4 5.8 1.5a3 3 0 012 1.5z"/><path class="st2" d="M14.1 17.8s-1.2-.2-2.1.4c-1 .6-3.1 6.3 2.4 4.7 3.2-.9 3.3-2.4 3.1-3.1l-.3-.8c-.1-.2-.2-.9.8-1.6l.7-.5s-1-.9-2.3-.6c-2 .6-2.7 2.2-2.7 2.5l.4-1z"/><path class="st3" d="M14.1 17.7s-1.2-.2-2.2.4c-.6.4-1.7 2.7-1.1 4.1.3.7 1.2 1.4 3.6.8 3.4-.9 3.3-2.5 3.2-3.2v-.2l-.3-.7c-.1-.3-.1-.9.8-1.5l.7-.5s-1-1-2.4-.6a3.9 3.9 0 00-2.8 2.6l.1.1.4-1.3zm-.4 1.2c.1-.4.7-1.9 2.7-2.5 1.3-.3 2.2.6 2.2.6v-.1l-.6.5c-1 .7-1 1.4-.8 1.7l.3.6v.2c.2.6.2 2.1-3.1 3-1.8.5-3 .3-3.4-.7-.6-1.3.5-3.6 1-3.9.9-.6 2.1-.4 2.1-.4l-.1-.1-.4 1.1c0-.1.1-.1.1 0 0-.1 0 0 0 0z"/><path class="st4" d="M11.7 15.1c.1.2-.1.5-.4.6l-.5.2c-.3.1-.6 0-.7-.2l-.1-.4c-.1-.2-.1-.5.2-.6l.7-.2c.3-.1.5-.2.7.2l.1.4zM15.5 13c.2.2 0 .5-.2.7l-.4.3c-.3.2-.7.2-.8 0l-.3-.4c-.2-.2-.3-.4 0-.6l.7-.4c.3-.2.5-.3.8 0l.2.4zM17.9 16.2c-.2-.2-.1-.5.1-.6l.3-.2c.2-.1.5-.1.7.1l.3.4c.2.2-.5 1-.5 1-.2.1-.2.1-.6-.3l-.3-.4zM9.6 18.3a.5.5 0 00-.7-.2l-.3.2c-.2.1-.2.4-.1.6l.3.4c.2.2 1-.1 1-.1.2-.1.3-.2.1-.6l-.3-.3zM18.4 9.1c.3.1.4.3.3.6l-.2.4c-.1.3-.4.5-.7.4l-.5-.1c-.3-.1-.5-.2-.4-.5l.3-.6c.1-.3.2-.5.7-.4l.5.2z"/><path class="st5" d="M13.2 21.2l-.1.2-.2-.1.1-.2.2.1zM12.6 22l-.1.2-.2-.1.1-.2.2.1zM12.4 21.5c0 .1 0 .2-.2.3l-.3-.1c0-.1 0-.2.2-.3l.3.1z"/></g></svg>